<svg width="453" height="472" viewBox="0 0 453 472" fill="none" xmlns="http://www.w3.org/2000/svg">
<path d="M303.834 354.856C302.469 353.343 305.687 344.508 320.959 343.883C336.23 343.257 342.348 348.818 342.37 354.856C342.382 357.528 303.834 354.856 303.834 354.856Z" fill="#455A64"/>
<path d="M296.295 123.706L279.329 228.626H434.271L452.942 122.58L296.295 123.706Z" fill="#F5F5F5"/>
<path d="M294.749 133.246C294.817 132.882 451.168 132.655 451.168 132.655L452.942 122.58L296.295 123.717L294.749 133.269" fill="#E0E0E0"/>
<path d="M302.845 128.424C302.847 128.711 302.764 128.991 302.607 129.23C302.45 129.469 302.225 129.656 301.961 129.767C301.698 129.878 301.407 129.908 301.126 129.854C300.845 129.799 300.587 129.663 300.384 129.461C300.18 129.26 300.042 129.002 299.985 128.722C299.928 128.441 299.956 128.15 300.065 127.886C300.174 127.621 300.359 127.395 300.597 127.236C300.835 127.077 301.115 126.992 301.401 126.992C301.59 126.99 301.777 127.026 301.952 127.098C302.128 127.169 302.287 127.274 302.421 127.407C302.555 127.541 302.662 127.699 302.735 127.874C302.807 128.048 302.845 128.235 302.845 128.424Z" fill="#263238"/>
<path d="M309.895 128.425C309.895 128.708 309.811 128.985 309.653 129.221C309.496 129.456 309.272 129.64 309.01 129.748C308.749 129.857 308.46 129.885 308.183 129.83C307.905 129.774 307.649 129.638 307.449 129.438C307.249 129.237 307.112 128.982 307.057 128.704C307.002 128.426 307.03 128.138 307.138 127.876C307.247 127.614 307.43 127.391 307.666 127.233C307.902 127.076 308.179 126.992 308.462 126.992C308.842 126.992 309.206 127.143 309.475 127.411C309.744 127.68 309.895 128.045 309.895 128.425Z" fill="#263238"/>
<path d="M316.956 128.424C316.958 128.711 316.876 128.991 316.718 129.23C316.561 129.469 316.336 129.656 316.073 129.767C315.809 129.878 315.518 129.908 315.237 129.854C314.956 129.799 314.698 129.663 314.495 129.461C314.292 129.26 314.153 129.002 314.096 128.722C314.04 128.441 314.068 128.15 314.177 127.886C314.286 127.621 314.471 127.395 314.708 127.236C314.946 127.077 315.226 126.992 315.512 126.992C315.701 126.99 315.889 127.026 316.064 127.098C316.239 127.169 316.398 127.274 316.532 127.407C316.667 127.541 316.773 127.699 316.846 127.874C316.919 128.048 316.956 128.235 316.956 128.424V128.424Z" fill="#263238"/>
<path d="M334.456 180.379L315.069 202.802C311.408 200.319 308.4 196.989 306.3 193.095C304.199 189.202 303.069 184.859 303.004 180.436C303.004 164.846 317.206 152.008 334.456 152.008C351.706 152.008 365.908 164.835 365.908 180.436L334.456 180.379Z" fill="#EE4248"/>
<path d="M336.946 183.938C336.852 184.097 336.742 184.245 336.617 184.381L335.605 185.587L331.761 190.135C328.418 194.047 323.665 199.573 317.968 206.225V205.861C322.263 208.818 327.226 210.662 332.409 211.228C338.261 211.903 344.188 211.008 349.58 208.636C354.726 206.4 359.17 202.813 362.44 198.254C363.914 196.128 365.095 193.814 365.954 191.375C366.703 189.095 367.158 186.73 367.307 184.336L367.557 184.597L345.384 184.222L339.152 184.086L337.504 184.029C337.311 184.047 337.117 184.047 336.924 184.029C337.105 184.011 337.288 184.011 337.47 184.029H339.096H345.293L367.557 184.177H367.83V184.45C367.701 186.897 367.25 189.317 366.488 191.647C365.625 194.14 364.427 196.504 362.929 198.675C359.599 203.355 355.048 207.033 349.773 209.307C344.281 211.709 338.25 212.612 332.296 211.922C327.024 211.324 321.983 209.425 317.627 206.396L317.4 206.236L317.582 206.02L331.613 190.021L335.536 185.587L336.583 184.45C336.689 184.269 336.81 184.097 336.946 183.938V183.938Z" fill="#263238"/>
<path d="M347.828 165.255C348.802 165.255 349.591 164.466 349.591 163.493C349.591 162.519 348.802 161.73 347.828 161.73C346.855 161.73 346.066 162.519 346.066 163.493C346.066 164.466 346.855 165.255 347.828 165.255Z" fill="#263238"/>
<path d="M384.602 150.598C384.053 150.683 383.498 150.721 382.942 150.712L378.394 150.803C374.584 150.803 369.297 150.894 363.509 150.894H360.734L360.939 150.814C357.289 154.453 354.037 157.637 351.683 159.911L348.897 162.572C348.579 162.917 348.22 163.223 347.828 163.481C348.104 163.103 348.413 162.749 348.749 162.424C349.443 161.685 350.341 160.752 351.41 159.638C353.684 157.284 356.891 154.032 360.507 150.371L360.587 150.291H363.577C369.388 150.291 374.653 150.291 378.462 150.371L383.01 150.473C383.544 150.464 384.077 150.506 384.602 150.598V150.598Z" fill="#263238"/>
<path d="M424.537 172.749C424.545 172.546 424.571 172.344 424.617 172.146C424.685 171.737 424.776 171.18 424.901 170.463L426.038 164.107L430.143 141.297L430.382 141.581L386.342 141.638L386.626 141.399V141.513V141.649V141.911L386.524 142.434L386.331 143.491L385.944 145.583C385.682 146.971 385.432 148.347 385.171 149.711C384.67 152.44 384.174 155.124 383.681 157.762C382.692 163.015 381.748 167.996 380.873 172.783L380.6 172.465L412.325 172.59L421.422 172.669H423.844H424.469H424.696H424.503H423.9H421.524L412.518 172.737L380.679 172.862H380.361L380.418 172.544C381.293 167.802 382.214 162.765 383.192 157.5C383.67 154.874 384.17 152.19 384.67 149.461C384.932 148.085 385.182 146.709 385.444 145.322C385.569 144.628 385.694 143.935 385.83 143.23L386.024 142.183L386.115 141.66L386.171 141.387V141.262V141.16L386.467 140.91L430.507 140.967H430.666L430.609 141.251C428.79 150.769 427.289 158.626 426.243 164.141C425.708 166.836 425.299 168.951 425.003 170.44L424.674 172.067C424.583 172.578 424.537 172.76 424.537 172.749Z" fill="#263238"/>
<path d="M350.592 200.71C351.565 200.71 352.354 199.921 352.354 198.948C352.354 197.974 351.565 197.185 350.592 197.185C349.618 197.185 348.829 197.974 348.829 198.948C348.829 199.921 349.618 200.71 350.592 200.71Z" fill="#263238"/>
<path d="M382.59 198.948C382.59 199.118 375.426 199.243 366.591 199.243C357.755 199.243 350.592 199.118 350.592 198.948C350.592 198.777 357.755 198.652 366.591 198.652C375.426 198.652 382.59 198.788 382.59 198.948Z" fill="#263238"/>
<path d="M424.537 212.684C424.551 212.538 424.578 212.393 424.617 212.252C424.685 211.945 424.776 211.535 424.901 211.024C425.163 209.886 425.538 208.374 426.038 206.396C427.028 202.37 428.438 196.628 430.177 189.566L430.393 189.839L384.978 189.908L385.262 189.692V189.76V189.851V190.044L385.159 190.431L384.966 191.181L384.591 192.705C384.329 193.706 384.079 194.706 383.829 195.707L382.214 201.665C381.236 205.52 380.293 209.25 379.383 212.809L379.121 212.468L411.699 212.593L421.115 212.661H423.639H424.299H424.537H424.333H423.696H421.228L411.859 212.729L379.121 212.854H378.758L378.849 212.502C379.747 208.943 380.679 205.202 381.646 201.347C382.131 199.414 382.628 197.454 383.135 195.468L383.886 192.466L384.273 190.954L384.466 190.192L384.557 189.805V189.623V189.521V189.453L384.841 189.225L430.257 189.305H430.666L430.598 189.578C428.756 196.673 427.266 202.438 426.22 206.475C425.697 208.42 425.288 209.955 425.004 211.024C424.867 211.513 424.765 211.899 424.685 212.161C424.606 212.422 424.537 212.695 424.537 212.684Z" fill="#263238"/>
<path d="M420.955 150.996C420.955 151.167 414.212 151.292 405.889 151.292C397.565 151.292 390.822 151.167 390.822 150.996C390.822 150.825 397.565 150.7 405.889 150.7C414.212 150.7 420.955 150.837 420.955 150.996Z" fill="#263238"/>
<path d="M420.603 155.931C420.603 156.102 413.78 156.227 405.457 156.227C397.133 156.227 390.299 156.102 390.299 155.931C390.299 155.76 397.122 155.635 405.457 155.635C413.792 155.635 420.603 155.772 420.603 155.931Z" fill="#263238"/>
<path d="M419.727 160.73C419.727 160.889 413.178 161.025 405.104 161.025C397.031 161.025 390.47 160.889 390.47 160.73C390.47 160.57 397.019 160.434 405.104 160.434C413.189 160.434 419.727 160.525 419.727 160.73Z" fill="#263238"/>
<path d="M420.251 198.402C420.251 198.561 413.826 198.697 405.889 198.697C397.952 198.697 391.527 198.561 391.527 198.402C391.527 198.243 397.963 198.106 405.889 198.106C413.815 198.106 420.251 198.254 420.251 198.402Z" fill="#263238"/>
<path d="M418.488 203.86C418.488 204.03 413.007 204.156 406.241 204.156C399.476 204.156 393.995 204.03 393.995 203.86C393.995 203.689 399.476 203.564 406.241 203.564C413.007 203.564 418.488 203.701 418.488 203.86Z" fill="#263238"/>
<path d="M235.471 318.105C234.925 321.3 219.756 354.867 229.547 354.867H278.761C278.761 354.867 273.678 350.091 289.063 318.105H235.471Z" fill="#455A64"/>
<path d="M203.632 206.066L183.517 323.62H353.184L373.993 201.938L203.632 206.066Z" fill="#455A64"/>
<path d="M209.398 211.797L192.443 316.729H347.374L366.045 210.682L209.398 211.797Z" fill="#FAFAFA"/>
<path d="M373.993 201.938L377.2 204.099L355.595 326.815H187.997L183.517 323.62H353.184L373.993 201.938Z" fill="#263238"/>
<path d="M207.863 221.349C207.919 220.973 364.271 220.757 364.271 220.757L366.045 210.682L209.398 211.82L207.863 221.371" fill="#EBEBEB"/>
<path d="M322.96 307.416V307.12L323.096 306.245C323.24 305.411 323.434 304.274 323.676 302.833C324.211 299.775 324.961 295.385 325.894 289.939C327.827 278.909 330.522 263.558 333.58 246.137V245.887H346.384L346.327 246.24C341.586 271.927 337.435 294.498 335.036 307.473V307.609H334.911L325.996 307.518H323.722H323.165H323.779H326.132L334.945 307.427L334.786 307.552L345.793 246.274L346.089 246.615H333.899L334.183 246.376C331.033 263.694 328.27 278.943 326.223 289.916C325.223 295.374 324.404 299.775 323.836 302.845C323.551 304.334 323.335 305.506 323.176 306.347C323.096 306.722 323.04 307.029 322.994 307.257C322.985 307.31 322.973 307.363 322.96 307.416V307.416Z" fill="#263238"/>
<path d="M303.311 307.416C303.326 307.14 303.368 306.865 303.436 306.597C303.538 305.994 303.686 305.187 303.868 304.164C304.277 301.969 304.846 298.865 305.562 295.067C307.052 287.187 309.133 276.225 311.509 263.694V263.455H324.313L324.245 263.808C320.652 281.626 317.422 297.466 315.421 307.507V307.655H315.273L306.37 307.552H304.095C303.842 307.569 303.587 307.569 303.334 307.552H304.175H306.54L315.319 307.45L315.137 307.598C317.115 297.546 320.231 281.695 323.733 263.853L324.017 264.206H311.759L312.044 263.979C309.576 276.396 307.416 287.266 305.858 295.078C305.073 298.956 304.448 302.071 303.993 304.266L303.481 306.756C303.481 307.018 303.368 307.234 303.334 307.404L303.311 307.416Z" fill="#263238"/>
<path d="M283.582 307.416C283.572 307.295 283.572 307.173 283.582 307.052L283.764 305.915C283.935 304.914 284.173 303.481 284.492 301.639C285.151 297.876 286.095 292.452 287.278 285.72C289.688 272.075 293.043 253.187 296.841 231.776V231.537H309.645L309.588 231.878C303.652 264.388 298.41 292.713 295.635 307.416V307.541H295.51L286.561 307.45H284.287H283.537H284.344H286.675L295.522 307.37L295.385 307.484C297.978 292.702 303.095 264.399 309.03 231.901L309.326 232.253H297.171L297.455 232.003C293.577 253.301 290.143 272.131 287.664 285.674C286.413 292.429 285.39 297.875 284.708 301.651L283.889 305.983C283.798 306.461 283.73 306.836 283.673 307.12L283.582 307.416Z" fill="#263238"/>
<path d="M263.887 307.416C263.896 307.225 263.919 307.035 263.956 306.847C264.035 306.404 264.126 305.847 264.24 305.142C264.502 303.572 264.877 301.389 265.377 298.672C266.366 293.043 267.742 285.231 269.323 276.202V275.964H282.115L282.047 276.316C279.693 288.597 277.578 299.649 276.077 307.461V307.632H275.918L267.049 307.518L264.649 307.416C264.388 307.432 264.126 307.432 263.865 307.416H264.729H267.128L275.861 307.302L275.656 307.461C277.112 299.649 279.17 288.574 281.444 276.282L281.74 276.634H269.562L269.835 276.407C268.152 285.333 266.708 293.054 265.65 298.615C265.127 301.344 264.695 303.55 264.388 305.13C264.24 305.847 264.126 306.438 264.035 306.881C263.996 307.062 263.947 307.241 263.887 307.416V307.416Z" fill="#263238"/>
<path d="M244.181 307.416C244.181 307.416 244.181 307.336 244.181 307.177C244.181 307.018 244.181 306.734 244.284 306.438C244.398 305.744 244.545 304.789 244.739 303.561C245.159 301.003 245.751 297.341 246.49 292.793C248.036 283.537 250.174 270.665 252.619 256.007V255.769H265.423L265.354 256.121C261.602 277.305 258.293 296.033 256.258 307.45V307.598H256.121L247.229 307.495H244.898C244.644 307.512 244.39 307.512 244.136 307.495H244.352H244.966H247.331L256.121 307.404L255.951 307.541L264.797 256.167L265.093 256.519H252.96L253.244 256.28C250.708 270.835 248.48 283.571 246.876 292.793C246.058 297.341 245.41 301.037 244.943 303.618C244.716 304.857 244.545 305.892 244.409 306.54L244.261 307.313L244.181 307.416Z" fill="#263238"/>
<path d="M224.51 307.416C224.495 307.306 224.495 307.195 224.51 307.086C224.51 306.836 224.601 306.506 224.669 306.085C224.828 305.164 225.044 303.811 225.328 302.174C225.908 298.762 226.761 293.771 227.807 287.607C229.968 275.156 232.981 257.827 236.392 238.212V237.973H249.196L249.139 238.325C243.84 267.799 239.156 293.566 236.574 307.45V307.575H236.449L227.523 307.484H225.249H224.703H225.306H227.637L236.472 307.393L236.324 307.518C238.735 293.6 243.306 267.811 248.605 238.348L248.889 238.689H236.711L236.995 238.451C233.504 257.963 230.411 275.19 228.194 287.573C227.057 293.759 226.158 298.728 225.522 302.185C225.215 303.891 224.964 305.21 224.794 306.154C224.703 306.586 224.646 306.927 224.589 307.188C224.532 307.45 224.51 307.416 224.51 307.416Z" fill="#263238"/>
<path d="M215.947 216.527C215.95 216.813 215.867 217.094 215.709 217.333C215.552 217.572 215.327 217.758 215.064 217.869C214.8 217.98 214.509 218.011 214.228 217.956C213.948 217.902 213.689 217.765 213.486 217.564C213.283 217.362 213.144 217.105 213.088 216.824C213.031 216.544 213.059 216.253 213.168 215.989C213.277 215.724 213.462 215.498 213.7 215.339C213.937 215.179 214.217 215.094 214.503 215.094C214.884 215.094 215.25 215.245 215.52 215.513C215.791 215.782 215.944 216.146 215.947 216.527V216.527Z" fill="#263238"/>
<path d="M221.565 217.96C222.356 217.96 222.997 217.318 222.997 216.527C222.997 215.736 222.356 215.094 221.565 215.094C220.773 215.094 220.132 215.736 220.132 216.527C220.132 217.318 220.773 217.96 221.565 217.96Z" fill="#263238"/>
<path d="M230.059 216.527C230.061 216.814 229.978 217.094 229.82 217.334C229.662 217.573 229.437 217.76 229.172 217.87C228.908 217.981 228.617 218.011 228.336 217.955C228.054 217.9 227.796 217.762 227.593 217.56C227.391 217.357 227.253 217.099 227.198 216.817C227.142 216.536 227.172 216.245 227.283 215.981C227.393 215.716 227.58 215.491 227.819 215.333C228.059 215.175 228.339 215.092 228.626 215.094C229.005 215.097 229.368 215.249 229.636 215.517C229.904 215.785 230.056 216.148 230.059 216.527Z" fill="#263238"/>
<path d="M204.815 307.416C204.815 307.416 204.815 307.12 204.94 306.54C205.065 305.96 205.179 305.051 205.361 303.959C205.759 301.685 206.316 298.353 207.01 294.271C208.465 285.925 210.478 274.326 212.786 261.09V260.851H225.59L225.522 261.204C222.008 280.148 218.881 296.954 216.936 307.461V307.609H216.8L207.896 307.507H205.622C205.365 307.523 205.107 307.523 204.849 307.507H205.076H205.69H208.056L216.845 307.404L216.664 307.552L225.021 261.261L225.306 261.602H213.07L213.355 261.363C210.955 274.497 208.806 286.004 207.351 294.271C206.577 298.376 205.963 301.685 205.52 304.004C205.315 305.142 205.145 306.006 205.02 306.643L204.883 307.336C204.862 307.364 204.839 307.39 204.815 307.416Z" fill="#263238"/>
<path d="M337.731 261.147H272.825L276.532 239.36H341.893L337.731 261.147Z" fill="#EE4248"/>
<path d="M272.825 261.147L271.563 268.754C271.563 268.754 280.091 260.851 279.955 260.851H272.882" fill="#EE4248"/>
<path d="M332.102 246.933C332.102 247.093 321.288 247.229 307.962 247.229C294.635 247.229 283.81 247.093 283.81 246.933C283.81 246.774 294.623 246.638 307.962 246.638C321.3 246.638 332.102 246.774 332.102 246.933Z" fill="#FAFAFA"/>
<path d="M331.466 252.198C331.466 252.357 320.652 252.494 307.325 252.494C293.998 252.494 283.173 252.357 283.173 252.198C283.173 252.039 293.987 251.902 307.325 251.902C320.663 251.902 331.466 252.028 331.466 252.198Z" fill="#FAFAFA"/>
<path d="M437.625 362.395H252.71V470.294H437.625V362.395Z" fill="#263238"/>
<path d="M336.946 362.395H252.71V470.294H336.946V362.395Z" fill="#455A64"/>
<path d="M328.327 399.044C328.327 399.044 328.327 398.85 328.327 398.498C328.327 398.145 328.327 397.599 328.327 396.929C328.327 395.53 328.327 393.517 328.27 390.936C328.27 385.751 328.213 378.28 328.156 369.07L328.372 369.286L260.612 369.365C260.351 369.638 260.965 369.013 260.908 369.081V376.881C260.908 379.463 260.908 382.01 260.908 384.511C260.908 389.526 260.908 394.393 260.908 399.044L260.635 398.771L309.201 398.896L323.29 398.975H327.065H328.054H328.395C328.293 398.986 328.19 398.986 328.088 398.975H327.133H323.415L309.394 399.055L260.635 399.191H260.351V398.907C260.351 394.256 260.351 389.39 260.351 384.375V369.081C260.283 369.081 260.908 368.512 260.647 368.774L328.327 368.819H328.543V369.024C328.543 378.291 328.452 385.796 328.429 391.027C328.429 393.585 328.429 395.575 328.372 396.963C328.372 397.611 328.372 398.1 328.372 398.498C328.371 398.681 328.355 398.863 328.327 399.044V399.044Z" fill="#263238"/>
<path d="M297.364 384.056C297.364 384.056 297.296 383.806 297.159 383.386C296.969 382.804 296.599 382.298 296.102 381.941C295.743 381.682 295.326 381.516 294.887 381.458C294.448 381.401 294.002 381.453 293.589 381.612C293.089 381.798 292.658 382.133 292.354 382.571C292.05 383.009 291.887 383.529 291.887 384.062C291.887 384.595 292.05 385.116 292.354 385.554C292.658 385.992 293.089 386.326 293.589 386.513C294.003 386.665 294.448 386.715 294.886 386.657C295.323 386.6 295.741 386.437 296.102 386.183C296.599 385.826 296.969 385.32 297.159 384.739C297.296 384.318 297.307 384.056 297.364 384.056C297.421 384.056 297.455 384.318 297.364 384.796C297.232 385.472 296.866 386.08 296.329 386.513C295.923 386.843 295.439 387.063 294.923 387.153C294.408 387.242 293.878 387.198 293.384 387.024C292.77 386.809 292.238 386.409 291.861 385.878C291.485 385.347 291.282 384.713 291.282 384.062C291.282 383.412 291.485 382.777 291.861 382.246C292.238 381.716 292.77 381.315 293.384 381.1C293.877 380.928 294.406 380.884 294.921 380.971C295.436 381.059 295.92 381.275 296.329 381.6C296.867 382.036 297.234 382.649 297.364 383.329C297.455 383.806 297.398 384.068 297.364 384.056Z" fill="#263238"/>
<path d="M328.327 432.042C328.327 432.042 328.327 431.849 328.327 431.496C328.327 431.144 328.327 430.587 328.327 429.916C328.327 428.517 328.327 426.505 328.27 423.935C328.27 418.738 328.213 411.279 328.157 402.068L328.373 402.284L260.613 402.364L260.908 402.068V409.857C260.908 412.439 260.908 414.974 260.908 417.487C260.908 422.502 260.908 427.357 260.908 432.019L260.635 431.735L309.201 431.872L323.29 431.951H327.065H328.054C328.168 431.942 328.282 431.942 328.395 431.951H328.088H327.133H323.415L309.394 432.031L260.635 432.167H260.351V431.883C260.351 427.221 260.351 422.365 260.351 417.351V402.091L260.647 401.795L328.407 401.875H328.623V402.091C328.623 411.358 328.532 418.863 328.509 424.083C328.509 426.641 328.509 428.631 328.452 430.03C328.452 430.678 328.452 431.167 328.452 431.553C328.421 431.719 328.379 431.882 328.327 432.042Z" fill="#263238"/>
<path d="M297.364 417.055C297.364 417.055 297.296 416.794 297.159 416.373C296.969 415.791 296.599 415.285 296.102 414.929C295.741 414.675 295.323 414.512 294.886 414.455C294.448 414.397 294.003 414.447 293.589 414.599C293.089 414.785 292.658 415.12 292.354 415.558C292.05 415.996 291.887 416.516 291.887 417.05C291.887 417.583 292.05 418.103 292.354 418.541C292.658 418.979 293.089 419.314 293.589 419.5C294.002 419.657 294.447 419.71 294.885 419.654C295.323 419.599 295.741 419.437 296.102 419.182C296.602 418.823 296.973 418.313 297.159 417.726C297.296 417.305 297.307 417.055 297.364 417.055C297.421 417.055 297.455 417.317 297.364 417.783C297.236 418.464 296.869 419.077 296.329 419.511C295.922 419.84 295.437 420.058 294.922 420.145C294.406 420.233 293.877 420.187 293.384 420.012C292.77 419.797 292.238 419.396 291.861 418.865C291.485 418.335 291.282 417.7 291.282 417.05C291.282 416.399 291.485 415.764 291.861 415.234C292.238 414.703 292.77 414.302 293.384 414.087C293.878 413.914 294.408 413.869 294.923 413.959C295.439 414.049 295.923 414.269 296.329 414.599C296.869 415.034 297.236 415.647 297.364 416.327C297.455 416.794 297.398 417.055 297.364 417.055Z" fill="#263238"/>
<path d="M328.327 465.03C328.327 465.03 328.327 464.836 328.327 464.484C328.327 464.131 328.327 463.585 328.327 462.915C328.327 461.516 328.327 459.503 328.27 456.922C328.27 451.737 328.213 444.266 328.156 435.056L328.372 435.272L260.612 435.351C260.351 435.624 260.965 434.999 260.908 435.067V442.867C260.908 445.449 260.908 447.996 260.908 450.497C260.908 455.512 260.908 460.379 260.908 465.03L260.635 464.757L309.201 464.882L323.29 464.961H327.065H328.054H328.395C328.293 464.972 328.19 464.972 328.088 464.961H327.133H323.415L309.394 465.03L260.635 465.166H260.351V464.882C260.351 460.231 260.351 455.364 260.351 450.35V435.067C260.283 435.124 260.908 434.498 260.647 434.76L328.407 434.851H328.623V435.056C328.623 444.323 328.532 451.839 328.509 457.059C328.509 459.617 328.509 461.607 328.452 462.994C328.452 463.654 328.452 464.131 328.452 464.529C328.422 464.699 328.38 464.866 328.327 465.03V465.03Z" fill="#263238"/>
<path d="M297.364 450.043C297.364 450.043 297.296 449.792 297.159 449.372C296.969 448.79 296.599 448.284 296.102 447.928C295.742 447.671 295.325 447.506 294.886 447.449C294.448 447.391 294.002 447.442 293.589 447.598C293.089 447.784 292.658 448.119 292.354 448.557C292.05 448.995 291.887 449.515 291.887 450.048C291.887 450.581 292.05 451.102 292.354 451.54C292.658 451.978 293.089 452.312 293.589 452.499C294.002 452.654 294.448 452.705 294.886 452.648C295.325 452.59 295.742 452.426 296.102 452.169C296.599 451.812 296.969 451.306 297.159 450.725C297.296 450.304 297.307 450.043 297.364 450.043C297.421 450.043 297.455 450.304 297.364 450.782C297.231 451.461 296.865 452.072 296.329 452.51C295.92 452.835 295.436 453.052 294.921 453.139C294.406 453.227 293.877 453.183 293.384 453.01C292.77 452.795 292.238 452.395 291.861 451.864C291.485 451.334 291.282 450.699 291.282 450.048C291.282 449.398 291.485 448.763 291.861 448.232C292.238 447.702 292.77 447.301 293.384 447.086C293.877 446.914 294.406 446.87 294.921 446.957C295.436 447.045 295.92 447.261 296.329 447.586C296.867 448.022 297.234 448.635 297.364 449.315C297.455 449.792 297.398 450.054 297.364 450.043Z" fill="#263238"/>
<path d="M161.514 362.395H5.96973V470.294H161.514V362.395Z" fill="#263238"/>
<path d="M444.323 354.867H0V365.124H444.323V354.867Z" fill="#263238"/>
<path d="M19.7514 365.124H5.96973V470.294H19.7514V365.124Z" fill="#455A64"/>
<path d="M178.718 192.568C178.627 192.137 178.562 191.7 178.525 191.261C178.36 190.092 177.974 188.965 177.388 187.94C177.008 187.254 176.429 186.699 175.728 186.348C175.332 186.179 174.895 186.13 174.472 186.209C174.049 186.288 173.659 186.491 173.351 186.792C172.034 188.427 171.316 190.463 171.316 192.563C171.316 194.662 172.034 196.699 173.351 198.334C173.658 198.637 174.047 198.842 174.47 198.923C174.894 199.004 175.331 198.957 175.728 198.788C176.428 198.43 177.006 197.872 177.388 197.185C177.974 196.16 178.36 195.033 178.525 193.865C178.562 193.429 178.626 192.996 178.718 192.568C178.792 193.009 178.792 193.458 178.718 193.899C178.642 195.123 178.305 196.318 177.729 197.401C177.318 198.182 176.68 198.821 175.898 199.232C175.435 199.454 174.916 199.529 174.409 199.448C173.879 199.344 173.386 199.105 172.976 198.754C171.508 197.027 170.702 194.835 170.702 192.568C170.702 190.302 171.508 188.109 172.976 186.383C173.382 186.024 173.877 185.781 174.409 185.678C174.916 185.602 175.434 185.677 175.898 185.894C176.68 186.305 177.318 186.943 177.729 187.724C178.307 188.811 178.644 190.009 178.718 191.238C178.791 191.678 178.791 192.128 178.718 192.568V192.568Z" fill="#263238"/>
<path d="M129.63 170.338L126.219 238.473L155.488 241.225L157.102 224.68C157.102 224.68 167.336 227.227 170.52 217.71C172.51 211.626 174.284 163.993 174.284 163.993L129.63 170.338Z" fill="#FFBE9D"/>
<path d="M180.504 171.02C178.014 176.945 168.621 182.027 168.621 182.027L167.086 197.117C165.689 197.02 164.287 197.02 162.89 197.117C163.641 190.033 154.532 191.431 153.6 196.241C152.713 200.881 158.001 203.985 158.001 203.985C154.35 209.579 152.872 212.536 147.687 217.778C142.092 223.463 139.079 223.918 133.291 223.748L126.912 223.452C126.912 223.452 124.638 218.005 122.989 205.145C122.182 198.959 117.304 190.851 118.725 180.788C122.637 152.213 154.259 157.284 154.259 157.284C166.131 148.051 186.371 157.091 180.504 171.02Z" fill="#263238"/>
<path d="M178.719 192.648C176.56 193.064 174.367 193.277 172.169 193.285C169.982 193.479 167.783 193.479 165.596 193.285C167.752 192.876 169.941 192.666 172.135 192.659C174.325 192.465 176.528 192.461 178.719 192.648Z" fill="#263238"/>
<path d="M271.961 272.689L261.329 279.273L257.429 288.369V280.41C257.429 280.41 260.317 276.998 262.682 274.508C265.047 272.018 263.353 270.289 262.682 269.437C262.011 268.584 251.834 280.41 251.834 280.41V287.232C247.092 281.399 244.898 283.4 244.17 284.458C243.442 285.515 251.834 293.429 251.834 293.429V295.84L210.137 318.264L199.164 290.973L176.751 302.742L190.135 335.138C191.058 337.38 192.452 339.396 194.223 341.051C195.994 342.706 198.1 343.96 200.398 344.729C202.697 345.498 205.134 345.764 207.544 345.508C209.954 345.252 212.281 344.48 214.367 343.246L263.433 314.238L266.696 308.792C267.829 306.915 268.496 304.794 268.641 302.606L270.335 278.101C273.314 276.236 271.961 272.689 271.961 272.689Z" fill="#FFBE9D"/>
<path d="M210.341 318.298C209.351 322.135 207.971 325.861 206.225 329.419C207.229 325.586 208.608 321.861 210.341 318.298V318.298Z" fill="#EB996E"/>
<path d="M270.335 278.101C269.707 278.425 269.061 278.713 268.402 278.966C267.649 279.322 266.977 279.829 266.428 280.455C265.878 281.08 265.463 281.812 265.206 282.604C264.356 284.894 263.322 287.111 262.114 289.234C262.78 286.895 263.632 284.614 264.661 282.411C264.993 281.48 265.52 280.631 266.207 279.921C266.796 279.373 267.478 278.934 268.22 278.624C268.876 278.291 269.599 278.112 270.335 278.101V278.101Z" fill="#EB996E"/>
<path d="M270.176 281.979C269.991 282.004 269.815 282.07 269.659 282.172C269.504 282.274 269.373 282.41 269.277 282.57C268.948 283.207 268.527 284.207 268.14 285.276C267.713 286.629 267.212 287.958 266.639 289.256C266.641 287.805 266.963 286.372 267.583 285.06C267.951 284.103 268.419 283.188 268.982 282.331C269.085 282.189 269.217 282.07 269.37 281.984C269.524 281.897 269.694 281.845 269.869 281.831C270.085 281.831 270.187 281.945 270.176 281.979Z" fill="#EB996E"/>
<path d="M170.054 298.592L174.818 314.727L205.054 301.082C203.917 297.671 198.959 282.65 189.396 258.771C186.777 252.223 182.518 246.46 177.027 242.035C171.537 237.61 165 234.672 158.046 233.504C148.153 231.855 137.385 230.57 129.095 230.673C120.866 230.749 112.911 233.648 106.562 238.884C100.212 244.12 95.8517 251.377 94.2091 259.441C91.6506 272.12 96.1308 280.501 93.2426 308.246L92.3215 378.03L173.056 380.998L170.054 298.592Z" fill="#EE4248"/>
<path d="M96.995 307.507C96.995 307.507 85.7718 308.166 81.3599 299.672C81.3599 299.672 93.4473 254.984 97.6659 249.719L96.995 307.507Z" fill="#EE4248"/>
<path d="M190.92 263.273C190.631 263.497 190.308 263.673 189.965 263.797C188.976 264.156 187.935 264.351 186.883 264.376C185.23 264.368 183.584 264.158 181.982 263.751C180.117 263.33 178.036 262.705 175.705 262.318C174.49 262.172 173.267 262.107 172.044 262.125C170.72 262.23 169.408 262.447 168.121 262.773C165.266 263.549 162.525 264.696 159.968 266.184C157.205 267.685 154.396 269.459 151.405 271.21C148.337 273.115 145.049 274.642 141.615 275.759C138.086 276.852 134.317 276.911 130.756 275.929C127.525 274.884 124.515 273.254 121.875 271.119C119.339 269.152 117.133 267.083 115.052 265.195C113.154 263.426 111.141 261.785 109.026 260.283C106.014 258.032 102.503 256.542 98.7916 255.939C97.4206 255.862 96.0463 255.862 94.6753 255.939C95.0106 255.803 95.3623 255.711 95.7214 255.666C96.7514 255.502 97.7963 255.453 98.8371 255.518C102.67 255.963 106.326 257.38 109.458 259.635C111.642 261.109 113.717 262.739 115.666 264.513C117.781 266.378 120.01 268.402 122.489 270.289C125.038 272.309 127.931 273.849 131.028 274.838C134.389 275.743 137.938 275.676 141.262 274.644C144.602 273.553 147.804 272.076 150.803 270.244C153.771 268.527 156.602 266.753 159.422 265.252C162.074 263.745 164.916 262.598 167.871 261.841C169.222 261.517 170.6 261.312 171.987 261.227C173.269 261.24 174.55 261.339 175.819 261.522C178.23 261.977 180.288 262.659 182.118 263.137C183.664 263.582 185.254 263.849 186.86 263.933C188.239 263.925 189.609 263.703 190.92 263.273V263.273Z" fill="#263238"/>
<path d="M170.588 318.957C169.047 318.039 167.345 317.422 165.574 317.138C163.644 316.91 161.69 317.018 159.797 317.456C157.637 317.888 155.306 318.673 152.747 319.31C148.357 320.439 143.76 320.501 139.341 319.492C135.929 318.696 134.099 317.616 134.156 317.502C134.212 317.388 136.191 318.105 139.511 318.639C143.817 319.372 148.228 319.198 152.463 318.127C154.953 317.502 157.33 316.74 159.593 316.342C161.609 315.934 163.685 315.911 165.71 316.274C167.081 316.518 168.384 317.053 169.531 317.843C170.327 318.468 170.645 318.912 170.588 318.957Z" fill="#263238"/>
<path d="M171.407 360.621C171.407 360.621 171.1 361.133 170.338 361.849C169.238 362.855 168.006 363.708 166.677 364.385C164.682 365.42 162.476 365.98 160.229 366.022C157.487 365.947 154.784 365.345 152.269 364.248C149.62 363.213 147.198 362.054 144.912 361.405C142.892 360.788 140.777 360.542 138.67 360.678C137.262 360.762 135.889 361.15 134.644 361.815C133.757 362.304 133.348 362.702 133.269 362.622C133.189 362.543 133.541 362.065 134.406 361.485C135.638 360.592 137.079 360.028 138.59 359.848C140.808 359.589 143.056 359.762 145.208 360.359C147.76 361.152 150.265 362.086 152.713 363.157C155.084 364.194 157.622 364.799 160.206 364.942C162.305 364.951 164.38 364.505 166.29 363.634C169.644 362.122 171.293 360.45 171.407 360.621Z" fill="#263238"/>
<g opacity="0.3">
<path opacity="0.3" d="M83.8501 308.291C94.4252 310.452 105.284 308.291 116.053 307.632C122.591 307.245 129.835 306.495 134.997 310.554C139.091 313.738 140.682 319.094 141.922 324.143C146.47 343.405 147.255 360.609 148.267 380.361L95.9602 379.224L83.8501 308.291Z" fill="black"/>
</g>
<path opacity="0.3" d="M97.6658 272.029L99.9287 304.641H93.0378L97.6658 272.029Z" fill="black"/>
<path d="M112.357 377.984L216.175 381.657C224.276 381.942 231.943 385.394 237.526 391.271C243.11 397.148 246.165 404.981 246.035 413.087L245.125 472H207.055L204.599 421.206L112.357 418.772V377.984Z" fill="#263238"/>
<path d="M147.175 431.849H136.964V469.225H147.175V431.849Z" fill="#455A64"/>
<path d="M51.2834 313.101V403.16C51.2865 408.831 53.5413 414.268 57.5521 418.277C61.563 422.285 67.0016 424.537 72.6723 424.537H132.643V313.101C132.64 310.573 131.634 308.149 129.845 306.363C128.056 304.576 125.631 303.572 123.103 303.572H60.8124C58.2851 303.572 55.8614 304.576 54.0744 306.363C52.2874 308.15 51.2834 310.574 51.2834 313.101V313.101Z" fill="#455A64"/>
<path d="M213.355 431.849H67.3052C67.3232 427.639 69.0084 423.607 71.9919 420.636C74.9754 417.666 79.0143 415.998 83.2246 415.998H197.56C201.764 415.998 205.796 417.668 208.769 420.64C211.741 423.613 213.411 427.645 213.411 431.849H213.355Z" fill="#455A64"/>
<path d="M132.643 413.894C132.709 414.784 132.633 415.678 132.416 416.544C131.926 418.571 130.859 420.413 129.343 421.846C127.827 423.279 125.928 424.242 123.876 424.617C122.948 424.768 122.008 424.832 121.067 424.81H118.122H105H81.121L73.9004 424.719H71.9332C71.7038 424.726 71.4744 424.704 71.251 424.651C71.4766 424.615 71.7047 424.596 71.9332 424.594L73.9004 424.537L81.121 424.435L105 424.321H121.067C121.98 424.356 122.894 424.303 123.796 424.162C125.393 423.886 126.901 423.236 128.197 422.263C130.12 420.842 131.51 418.815 132.143 416.509C132.62 414.849 132.564 413.883 132.643 413.894Z" fill="#263238"/>
<path d="M151.019 432.156C148.046 432.456 145.056 432.554 142.07 432.452C139.08 432.555 136.086 432.456 133.109 432.156C136.087 431.863 139.08 431.764 142.07 431.86C145.056 431.764 148.045 431.863 151.019 432.156V432.156Z" fill="#263238"/>
<path d="M195.457 425.333C195.316 424.968 195.224 424.586 195.184 424.196C195.036 423.457 194.843 422.388 194.615 421.001C194.149 418.215 193.478 414.178 192.75 409.221C192.341 406.742 192.011 403.979 191.465 401.102C191.318 400.385 191.181 399.658 191.033 398.907C190.886 398.157 190.601 397.452 190.385 396.701C190.272 396.337 190.169 395.951 190.055 395.564C189.942 395.177 189.771 394.825 189.623 394.427C189.316 393.676 189.043 392.915 188.714 392.153C187.27 389.039 185.444 386.117 183.278 383.454C180.913 380.625 178.161 378.145 175.103 376.085C172.058 374.002 168.715 372.391 165.187 371.31C161.913 370.27 158.511 369.689 155.078 369.581C148.46 369.433 142.434 369.467 137.408 369.399C132.382 369.331 128.311 369.274 125.491 369.206C124.081 369.206 122.989 369.138 122.239 369.092C121.856 369.104 121.474 369.066 121.102 368.979C121.473 368.883 121.856 368.841 122.239 368.853L125.491 368.74C128.299 368.671 132.382 368.615 137.408 368.558C142.434 368.501 148.426 368.399 155.112 368.49C158.652 368.565 162.163 369.143 165.54 370.207C169.185 371.298 172.638 372.951 175.773 375.107C178.932 377.222 181.767 379.784 184.188 382.715C186.404 385.468 188.265 388.49 189.726 391.709C190.055 392.482 190.328 393.278 190.635 394.04C190.772 394.427 190.92 394.802 191.067 395.177C191.215 395.553 191.284 395.951 191.397 396.314C191.613 397.088 191.818 397.838 192.023 398.589C192.227 399.339 192.307 400.101 192.443 400.863C192.955 403.808 193.228 406.548 193.58 409.027C194.229 414.019 194.718 418.067 195.07 420.864C195.229 422.263 195.354 423.355 195.423 424.094C195.496 424.503 195.508 424.921 195.457 425.333V425.333Z" fill="#455A64"/>
<path d="M11.1549 316.353C11.1549 316.353 9.31281 321.505 12.8378 325.234H20.1721C20.1721 325.234 19.524 316.911 11.1549 316.353Z" fill="#EE4248"/>
<path opacity="0.4" d="M11.1549 316.353C11.1549 316.353 9.31281 321.505 12.8378 325.234H20.1721C20.1721 325.234 19.524 316.911 11.1549 316.353Z" fill="black"/>
<path d="M23.6518 305.744C23.3448 305.38 17.068 315.205 20.593 325.234H27.5066C27.5066 325.234 30.2129 313.567 23.6518 305.744Z" fill="#EE4248"/>
<path d="M35.8984 316.353C33.6384 316.505 31.5188 317.504 29.9631 319.15C28.4074 320.797 27.5301 322.969 27.5066 325.234H34.4088C34.4088 325.234 37.4335 320.981 35.8984 316.353Z" fill="#EE4248"/>
<path d="M12.2694 324.848C9.88495 326.559 8.03561 328.913 6.9365 331.634C5.83739 334.356 5.53371 337.334 6.06078 340.221C7.83466 350.455 18.6371 354.867 18.6371 354.867H30.6108C30.6108 354.867 42.8006 349.489 42.5049 338.425C42.2093 327.361 34.9546 325.007 34.9546 325.007L12.2694 324.848Z" fill="#455A64"/>
<path d="M42.4594 337.185C42.1883 336.728 41.8554 336.311 41.4701 335.946C40.9133 335.501 40.2738 335.172 39.5886 334.977C38.9034 334.781 38.1863 334.724 37.4789 334.809C35.3612 335.21 33.3603 336.08 31.6228 337.356C30.5192 338.061 29.3502 338.659 28.1319 339.141C26.7878 339.652 25.3319 339.797 23.9133 339.562C20.9909 339.061 18.6598 337.492 16.4766 336.446C14.6189 335.362 12.4837 334.848 10.3363 334.968C8.90061 335.117 7.57142 335.793 6.60656 336.867C6.28414 337.29 6.00956 337.748 5.78784 338.231C5.79544 338.088 5.82221 337.947 5.86744 337.81C5.98528 337.402 6.17386 337.017 6.42462 336.673C7.3781 335.477 8.76164 334.702 10.2794 334.513C12.5371 334.315 14.8008 334.819 16.7609 335.957C19.0351 337.003 21.3093 338.515 24.0497 338.97C25.3712 339.197 26.7293 339.068 27.9841 338.595C29.173 338.132 30.3153 337.557 31.3954 336.878C33.2088 335.591 35.2943 334.739 37.4903 334.388C38.2477 334.314 39.0123 334.399 39.7349 334.638C40.4575 334.877 41.1222 335.264 41.6862 335.775C41.9796 336.063 42.2184 336.402 42.3912 336.776C42.448 337.037 42.4821 337.174 42.4594 337.185Z" fill="#263238"/>
<path d="M42.6301 339.857C42.3573 339.408 42.0287 338.996 41.6522 338.629C41.1038 338.182 40.4704 337.85 39.7902 337.655C39.11 337.46 38.3973 337.404 37.6951 337.492C35.6008 337.895 33.6232 338.761 31.9072 340.028C30.8322 340.738 29.6895 341.34 28.4959 341.825C27.164 342.337 25.7187 342.483 24.3114 342.245C21.4117 341.745 19.1034 340.176 16.9429 339.13C15.1138 338.047 13.0043 337.533 10.8822 337.651C9.45582 337.807 8.13845 338.488 7.1866 339.562C6.86906 339.98 6.60189 340.434 6.39063 340.915C6.39062 340.915 6.39062 340.767 6.45885 340.494C6.58187 340.107 6.76615 339.742 7.00466 339.414C7.94285 338.221 9.30966 337.442 10.814 337.242C13.0336 337.04 15.2614 337.529 17.1931 338.641C19.3991 339.687 21.7415 341.199 24.4023 341.654C25.7088 341.881 27.0523 341.751 28.2912 341.279C29.4626 340.817 30.5861 340.242 31.6457 339.562C33.4378 338.274 35.505 337.422 37.6837 337.071C38.425 337.005 39.172 337.094 39.877 337.333C40.5819 337.572 41.2291 337.955 41.7773 338.459C42.0655 338.745 42.3004 339.08 42.4709 339.448C42.5463 339.575 42.6001 339.713 42.6301 339.857Z" fill="#263238"/>
<path d="M11.553 339.789C11.553 339.721 11.8714 339.516 12.2921 339.857C12.4192 339.967 12.5101 340.113 12.5527 340.275C12.5954 340.438 12.5877 340.609 12.5309 340.767C12.4609 340.962 12.3297 341.128 12.1569 341.242C11.9842 341.355 11.7792 341.41 11.5728 341.397C11.3665 341.384 11.1698 341.305 11.0124 341.171C10.8551 341.037 10.7455 340.855 10.7001 340.653C10.6602 340.497 10.6634 340.334 10.7095 340.179C10.7555 340.025 10.8427 339.886 10.9617 339.778C11.371 339.437 11.7235 339.596 11.7008 339.664C11.678 339.732 11.4506 339.789 11.2801 340.062C11.2432 340.13 11.224 340.206 11.224 340.284C11.224 340.361 11.2432 340.437 11.2801 340.505C11.3134 340.585 11.3663 340.655 11.4339 340.709C11.5015 340.762 11.5816 340.798 11.6667 340.812C11.7507 340.809 11.8324 340.785 11.9041 340.741C11.9758 340.697 12.035 340.636 12.076 340.562C12.1141 340.499 12.1342 340.426 12.1342 340.352C12.1342 340.278 12.1141 340.205 12.076 340.142C11.8259 339.88 11.5643 339.869 11.553 339.789Z" fill="#263238"/>
<path d="M25.1186 335.468C25.1186 335.4 25.4369 335.184 25.869 335.536C25.9917 335.649 26.0786 335.795 26.119 335.957C26.1594 336.119 26.1516 336.289 26.0965 336.446C26.0247 336.639 25.8937 336.805 25.7222 336.919C25.5506 337.034 25.3473 337.091 25.1413 337.083C24.9358 337.063 24.7413 336.981 24.5845 336.846C24.4278 336.712 24.3164 336.532 24.2657 336.332C24.2245 336.175 24.2282 336.01 24.2765 335.855C24.3247 335.7 24.4156 335.562 24.5386 335.457C24.948 335.116 25.3005 335.275 25.2664 335.343C25.2323 335.411 25.0162 335.468 24.8457 335.741C24.8116 335.81 24.7938 335.886 24.7938 335.963C24.7938 336.04 24.8116 336.115 24.8457 336.184C24.879 336.264 24.9319 336.334 24.9995 336.388C25.0671 336.441 25.1472 336.477 25.2323 336.491C25.3165 336.49 25.3987 336.465 25.4706 336.421C25.5425 336.378 25.6015 336.315 25.6416 336.241C25.6809 336.178 25.7018 336.105 25.7018 336.031C25.7018 335.957 25.6809 335.884 25.6416 335.821C25.3915 335.559 25.1299 335.548 25.1186 335.468Z" fill="#263238"/>
<path d="M38.2749 339.982C38.2749 339.914 38.5933 339.709 39.0254 340.051C39.148 340.163 39.2349 340.31 39.2753 340.471C39.3157 340.633 39.3079 340.803 39.2528 340.96C39.181 341.154 39.05 341.319 38.8785 341.434C38.7069 341.548 38.5036 341.605 38.2976 341.597C38.0936 341.578 37.9002 341.497 37.7436 341.365C37.587 341.233 37.4748 341.056 37.4221 340.858C37.3812 340.699 37.3851 340.533 37.4333 340.376C37.4814 340.219 37.572 340.079 37.695 339.971C38.1043 339.63 38.4568 339.789 38.4227 339.857C38.3886 339.926 38.1725 339.994 38.002 340.255C37.9541 340.323 37.9246 340.401 37.9162 340.483C37.9078 340.566 37.9208 340.648 37.9541 340.724C37.9873 340.8 38.0395 340.865 38.1057 340.915C38.1719 340.964 38.2498 340.995 38.3317 341.006C38.416 341.004 38.4982 340.98 38.5701 340.936C38.642 340.892 38.701 340.83 38.7411 340.756C38.7804 340.692 38.8012 340.62 38.8012 340.545C38.8012 340.471 38.7804 340.398 38.7411 340.335C38.5478 340.085 38.2976 340.062 38.2749 339.982Z" fill="#263238"/>
<path d="M384.409 314.409L388.309 354.867H408.027L412.746 314.409H384.409Z" fill="#455A64"/>
<path d="M384.409 309.178C383.195 310.694 382.541 312.581 382.555 314.523H414.599C414.755 313.548 414.667 312.55 414.344 311.618C414.021 310.685 413.471 309.847 412.745 309.178H384.409Z" fill="#263238"/>
<path d="M388.059 305.471L386.979 309.474L411.165 309.656L409.562 305.426L388.059 305.471Z" fill="#263238"/>
<path d="M384.045 324.541C384.045 324.916 386.319 344.94 386.319 344.94H410.415L412.689 324.575L384.045 324.541Z" fill="#EE4248"/>
</svg>
